# xmcd
#
# Track frame offsets:
# 150
# 15605
# 30908
# 46653
# 59799
# 76954
# 89125
# 104899
# 119126
# 133405
# 148533
# 165071
# 177110
#
# Disc length: 2583 seconds
#
#
# Revision: 1
# Processed by: cddbd v1.5.2PL0 Copyright (c) Steve Scherf et al.
# Submitted via: FreeRIP 2.945 
#
DISCID=b30a150d
DTITLE=Randy Travis - Influence Vol. 1 - The Man I Am
DYEAR=1900
DGENRE=
TTITLE0=Someday We'll Look Back
TTITLE1=Big Butter And Egg Man
TTITLE2=What Have You Got Planned Tonight Diana
TTITLE3=Ever Changing Woman
TTITLE4=Pennies From Heaven
TTITLE5=Thanks A Lot
TTITLE6=Trouble In Mind
TTITLE7=My Mary
TTITLE8=Saginaw Michigan
TTITLE9=I'm Always On A Mountain When I Fall
TTITLE10=You Asked Me To
TTITLE11=Why Baby Why
TTITLE12=Tonight I'm Playing Possum with Joe Nichols
EXTD=
EXTT0=
EXTT1=
EXTT2=
EXTT3=
EXTT4=
EXTT5=
EXTT6=
EXTT7=
EXTT8=
EXTT9=
EXTT10=
EXTT11=
EXTT12=
PLAYORDER=
